<mxfile host="app.diagrams.net" agent="Mozilla/5.0 (Windows NT 10.0; Win64; x64) AppleWebKit/537.36 (KHTML, like Gecko) Chrome/130.0.0.0 Safari/537.36" version="24.8.0">
  <diagram name="Страница — 1" id="ocA2Xz7MbXRDe5rCsgp5">
    <mxGraphModel dx="7170" dy="3900" grid="1" gridSize="10" guides="1" tooltips="1" connect="1" arrows="1" fold="1" page="1" pageScale="1" pageWidth="827" pageHeight="1169" math="0" shadow="0">
      <root>
        <mxCell id="0" />
        <mxCell id="1" parent="0" />
        <mxCell id="-XFt7LpDI0PxdsaACA3U-27" style="edgeStyle=orthogonalEdgeStyle;rounded=0;orthogonalLoop=1;jettySize=auto;html=1;" parent="1" source="-XFt7LpDI0PxdsaACA3U-2" target="-XFt7LpDI0PxdsaACA3U-12" edge="1">
          <mxGeometry relative="1" as="geometry" />
        </mxCell>
        <mxCell id="-XFt7LpDI0PxdsaACA3U-2" value="&lt;font style=&quot;font-size: 36px;&quot;&gt;A.html&lt;/font&gt;" style="rounded=0;whiteSpace=wrap;html=1;" parent="1" vertex="1">
          <mxGeometry x="60" y="180" width="190" height="310" as="geometry" />
        </mxCell>
        <mxCell id="-XFt7LpDI0PxdsaACA3U-30" style="edgeStyle=orthogonalEdgeStyle;rounded=0;orthogonalLoop=1;jettySize=auto;html=1;entryX=0.5;entryY=0;entryDx=0;entryDy=0;" parent="1" source="-XFt7LpDI0PxdsaACA3U-3" target="-XFt7LpDI0PxdsaACA3U-29" edge="1">
          <mxGeometry relative="1" as="geometry" />
        </mxCell>
        <mxCell id="-XFt7LpDI0PxdsaACA3U-3" value="&lt;span style=&quot;font-size: 36px;&quot;&gt;B.html&lt;/span&gt;" style="rounded=0;whiteSpace=wrap;html=1;" parent="1" vertex="1">
          <mxGeometry x="319" y="180" width="190" height="310" as="geometry" />
        </mxCell>
        <mxCell id="-XFt7LpDI0PxdsaACA3U-137" style="edgeStyle=orthogonalEdgeStyle;rounded=0;orthogonalLoop=1;jettySize=auto;html=1;" parent="1" source="-XFt7LpDI0PxdsaACA3U-4" target="-XFt7LpDI0PxdsaACA3U-122" edge="1">
          <mxGeometry relative="1" as="geometry" />
        </mxCell>
        <mxCell id="-XFt7LpDI0PxdsaACA3U-138" style="edgeStyle=orthogonalEdgeStyle;rounded=0;orthogonalLoop=1;jettySize=auto;html=1;entryX=0;entryY=0.5;entryDx=0;entryDy=0;" parent="1" source="-XFt7LpDI0PxdsaACA3U-4" target="-XFt7LpDI0PxdsaACA3U-122" edge="1">
          <mxGeometry relative="1" as="geometry" />
        </mxCell>
        <mxCell id="ibyCmS2vkB0168hNO_55-1" value="" style="edgeStyle=orthogonalEdgeStyle;rounded=0;orthogonalLoop=1;jettySize=auto;html=1;" edge="1" parent="1" source="-XFt7LpDI0PxdsaACA3U-4" target="-XFt7LpDI0PxdsaACA3U-5">
          <mxGeometry relative="1" as="geometry" />
        </mxCell>
        <mxCell id="-XFt7LpDI0PxdsaACA3U-4" value="&lt;span style=&quot;font-size: 36px;&quot;&gt;C.html&lt;/span&gt;" style="rounded=0;whiteSpace=wrap;html=1;fontStyle=0" parent="1" vertex="1">
          <mxGeometry x="600" y="180" width="190" height="310" as="geometry" />
        </mxCell>
        <mxCell id="-XFt7LpDI0PxdsaACA3U-11" value="" style="group" parent="1" vertex="1" connectable="0">
          <mxGeometry x="90" y="30" width="700" height="130" as="geometry" />
        </mxCell>
        <mxCell id="-XFt7LpDI0PxdsaACA3U-7" style="edgeStyle=orthogonalEdgeStyle;rounded=0;orthogonalLoop=1;jettySize=auto;html=1;" parent="-XFt7LpDI0PxdsaACA3U-11" source="-XFt7LpDI0PxdsaACA3U-5" edge="1">
          <mxGeometry relative="1" as="geometry">
            <mxPoint y="130" as="targetPoint" />
          </mxGeometry>
        </mxCell>
        <mxCell id="-XFt7LpDI0PxdsaACA3U-8" style="edgeStyle=orthogonalEdgeStyle;rounded=0;orthogonalLoop=1;jettySize=auto;html=1;" parent="-XFt7LpDI0PxdsaACA3U-11" source="-XFt7LpDI0PxdsaACA3U-5" edge="1">
          <mxGeometry relative="1" as="geometry">
            <mxPoint x="700" y="130" as="targetPoint" />
          </mxGeometry>
        </mxCell>
        <mxCell id="-XFt7LpDI0PxdsaACA3U-9" style="edgeStyle=orthogonalEdgeStyle;rounded=0;orthogonalLoop=1;jettySize=auto;html=1;" parent="-XFt7LpDI0PxdsaACA3U-11" source="-XFt7LpDI0PxdsaACA3U-5" target="-XFt7LpDI0PxdsaACA3U-3" edge="1">
          <mxGeometry relative="1" as="geometry" />
        </mxCell>
        <mxCell id="-XFt7LpDI0PxdsaACA3U-5" value="&lt;font size=&quot;3&quot;&gt;Main foulder&lt;/font&gt;" style="rounded=1;whiteSpace=wrap;html=1;" parent="-XFt7LpDI0PxdsaACA3U-11" vertex="1">
          <mxGeometry x="30" width="640" height="60" as="geometry" />
        </mxCell>
        <mxCell id="-XFt7LpDI0PxdsaACA3U-12" value="" style="rounded=0;whiteSpace=wrap;html=1;" parent="1" vertex="1">
          <mxGeometry x="50" y="570" width="750" height="2120" as="geometry" />
        </mxCell>
        <mxCell id="-XFt7LpDI0PxdsaACA3U-14" value="&lt;font style=&quot;font-size: 48px;&quot;&gt;Welcome to My html Webpage&lt;/font&gt;" style="rounded=0;whiteSpace=wrap;html=1;" parent="1" vertex="1">
          <mxGeometry x="80" y="600" width="690" height="60" as="geometry" />
        </mxCell>
        <mxCell id="-XFt7LpDI0PxdsaACA3U-15" value="" style="rounded=0;whiteSpace=wrap;html=1;fillColor=#f8cecc;strokeColor=#b85450;" parent="1" vertex="1">
          <mxGeometry x="80" y="710" width="690" height="200" as="geometry" />
        </mxCell>
        <mxCell id="-XFt7LpDI0PxdsaACA3U-16" value="" style="triangle;whiteSpace=wrap;html=1;fillColor=#dae8fc;strokeColor=#6c8ebf;" parent="1" vertex="1">
          <mxGeometry x="414" y="770" width="60" height="80" as="geometry" />
        </mxCell>
        <mxCell id="-XFt7LpDI0PxdsaACA3U-17" value="&lt;h1 style=&quot;margin-top: 0px;&quot;&gt;&lt;font style=&quot;font-size: 72px;&quot;&gt;Heading&lt;/font&gt;&lt;/h1&gt;&lt;p&gt;&lt;font style=&quot;font-size: 36px;&quot;&gt;Lorem ipsum dolor sit amet, consectetur adipisicing elit, sed do eiusmod tempor incididunt ut labore et dolore magna aliqua.&lt;/font&gt;&lt;/p&gt;" style="text;html=1;whiteSpace=wrap;overflow=hidden;rounded=0;" parent="1" vertex="1">
          <mxGeometry x="80" y="930" width="680" height="300" as="geometry" />
        </mxCell>
        <mxCell id="-XFt7LpDI0PxdsaACA3U-18" value="&lt;font style=&quot;font-size: 48px;&quot;&gt;IMG&lt;/font&gt;" style="whiteSpace=wrap;html=1;aspect=fixed;fillColor=#d5e8d4;strokeColor=#82b366;" parent="1" vertex="1">
          <mxGeometry x="80" y="1230" width="210" height="210" as="geometry" />
        </mxCell>
        <mxCell id="-XFt7LpDI0PxdsaACA3U-19" value="&lt;span style=&quot;font-size: 48px;&quot;&gt;IMG&lt;/span&gt;" style="whiteSpace=wrap;html=1;aspect=fixed;fillColor=#d5e8d4;strokeColor=#82b366;" parent="1" vertex="1">
          <mxGeometry x="330" y="1230" width="210" height="210" as="geometry" />
        </mxCell>
        <mxCell id="-XFt7LpDI0PxdsaACA3U-20" value="&lt;span style=&quot;font-size: 48px;&quot;&gt;IMG&lt;/span&gt;" style="whiteSpace=wrap;html=1;aspect=fixed;fillColor=#d5e8d4;strokeColor=#82b366;" parent="1" vertex="1">
          <mxGeometry x="570" y="1230" width="210" height="210" as="geometry" />
        </mxCell>
        <mxCell id="-XFt7LpDI0PxdsaACA3U-21" value="&lt;font style=&quot;font-size: 36px;&quot;&gt;List&lt;/font&gt;" style="swimlane;fontStyle=0;childLayout=stackLayout;horizontal=1;startSize=30;horizontalStack=0;resizeParent=1;resizeParentMax=0;resizeLast=0;collapsible=1;marginBottom=0;whiteSpace=wrap;html=1;" parent="1" vertex="1">
          <mxGeometry x="110" y="1520" width="590" height="660" as="geometry" />
        </mxCell>
        <mxCell id="-XFt7LpDI0PxdsaACA3U-22" value="&lt;br&gt;&lt;span style=&quot;font-size: 36px;&quot;&gt;Audio 1&lt;/span&gt;" style="text;strokeColor=none;fillColor=none;align=left;verticalAlign=middle;spacingLeft=4;spacingRight=4;overflow=hidden;points=[[0,0.5],[1,0.5]];portConstraint=eastwest;rotatable=0;whiteSpace=wrap;html=1;" parent="-XFt7LpDI0PxdsaACA3U-21" vertex="1">
          <mxGeometry y="30" width="590" height="100" as="geometry" />
        </mxCell>
        <mxCell id="-XFt7LpDI0PxdsaACA3U-23" value="&lt;span style=&quot;font-size: 36px;&quot;&gt;Audio2&lt;/span&gt;" style="text;strokeColor=none;fillColor=none;align=left;verticalAlign=middle;spacingLeft=4;spacingRight=4;overflow=hidden;points=[[0,0.5],[1,0.5]];portConstraint=eastwest;rotatable=0;whiteSpace=wrap;html=1;" parent="-XFt7LpDI0PxdsaACA3U-21" vertex="1">
          <mxGeometry y="130" width="590" height="210" as="geometry" />
        </mxCell>
        <mxCell id="-XFt7LpDI0PxdsaACA3U-24" value="&lt;span style=&quot;font-size: 36px;&quot;&gt;Audio&lt;/span&gt;" style="text;strokeColor=none;fillColor=none;align=left;verticalAlign=middle;spacingLeft=4;spacingRight=4;overflow=hidden;points=[[0,0.5],[1,0.5]];portConstraint=eastwest;rotatable=0;whiteSpace=wrap;html=1;" parent="-XFt7LpDI0PxdsaACA3U-21" vertex="1">
          <mxGeometry y="340" width="590" height="320" as="geometry" />
        </mxCell>
        <mxCell id="-XFt7LpDI0PxdsaACA3U-25" value="" style="rounded=0;whiteSpace=wrap;html=1;fillColor=#f8cecc;strokeColor=#b85450;" parent="1" vertex="1">
          <mxGeometry x="80" y="2278" width="670" height="302" as="geometry" />
        </mxCell>
        <mxCell id="-XFt7LpDI0PxdsaACA3U-26" value="" style="triangle;whiteSpace=wrap;html=1;fillColor=#dae8fc;strokeColor=#6c8ebf;" parent="1" vertex="1">
          <mxGeometry x="375" y="2370" width="60" height="80" as="geometry" />
        </mxCell>
        <mxCell id="-XFt7LpDI0PxdsaACA3U-29" value="" style="rounded=0;whiteSpace=wrap;html=1;" parent="1" vertex="1">
          <mxGeometry x="1160" y="550" width="1160" height="1350" as="geometry" />
        </mxCell>
        <mxCell id="-XFt7LpDI0PxdsaACA3U-109" value="Cross-Functional Flowchart" style="shape=table;childLayout=tableLayout;startSize=40;collapsible=0;recursiveResize=0;expand=0;fontSize=16;" parent="1" vertex="1">
          <mxGeometry x="1170" y="580" width="1130" height="1320" as="geometry" />
        </mxCell>
        <mxCell id="-XFt7LpDI0PxdsaACA3U-110" value="Actor 1" style="shape=tableRow;horizontal=0;swimlaneHead=0;swimlaneBody=0;top=0;left=0;strokeColor=inherit;bottom=0;right=0;dropTarget=0;fontStyle=0;fillColor=none;points=[[0,0.5],[1,0.5]];portConstraint=eastwest;startSize=40;collapsible=0;recursiveResize=0;expand=0;fontSize=16;" parent="-XFt7LpDI0PxdsaACA3U-109" vertex="1">
          <mxGeometry y="40" width="1130" height="426" as="geometry" />
        </mxCell>
        <mxCell id="-XFt7LpDI0PxdsaACA3U-111" value="Phase 1" style="swimlane;swimlaneHead=0;swimlaneBody=0;fontStyle=0;strokeColor=inherit;connectable=0;fillColor=none;startSize=120;collapsible=0;recursiveResize=0;expand=0;fontSize=16;" parent="-XFt7LpDI0PxdsaACA3U-110" vertex="1">
          <mxGeometry x="40" width="606" height="426" as="geometry">
            <mxRectangle width="606" height="426" as="alternateBounds" />
          </mxGeometry>
        </mxCell>
        <mxCell id="-XFt7LpDI0PxdsaACA3U-112" value="Phase 2" style="swimlane;swimlaneHead=0;swimlaneBody=0;fontStyle=0;strokeColor=inherit;connectable=0;fillColor=none;startSize=120;collapsible=0;recursiveResize=0;expand=0;fontSize=16;" parent="-XFt7LpDI0PxdsaACA3U-110" vertex="1">
          <mxGeometry x="646" width="121" height="426" as="geometry">
            <mxRectangle width="121" height="426" as="alternateBounds" />
          </mxGeometry>
        </mxCell>
        <mxCell id="-XFt7LpDI0PxdsaACA3U-113" value="Phase 3" style="swimlane;swimlaneHead=0;swimlaneBody=0;fontStyle=0;strokeColor=inherit;connectable=0;fillColor=none;startSize=120;collapsible=0;recursiveResize=0;expand=0;fontSize=16;" parent="-XFt7LpDI0PxdsaACA3U-110" vertex="1">
          <mxGeometry x="767" width="363" height="426" as="geometry">
            <mxRectangle width="363" height="426" as="alternateBounds" />
          </mxGeometry>
        </mxCell>
        <mxCell id="-XFt7LpDI0PxdsaACA3U-114" value="Actor 2" style="shape=tableRow;horizontal=0;swimlaneHead=0;swimlaneBody=0;top=0;left=0;strokeColor=inherit;bottom=0;right=0;dropTarget=0;fontStyle=0;fillColor=none;points=[[0,0.5],[1,0.5]];portConstraint=eastwest;startSize=40;collapsible=0;recursiveResize=0;expand=0;fontSize=16;" parent="-XFt7LpDI0PxdsaACA3U-109" vertex="1">
          <mxGeometry y="466" width="1130" height="428" as="geometry" />
        </mxCell>
        <mxCell id="-XFt7LpDI0PxdsaACA3U-115" value="" style="swimlane;swimlaneHead=0;swimlaneBody=0;fontStyle=0;connectable=0;strokeColor=inherit;fillColor=none;startSize=0;collapsible=0;recursiveResize=0;expand=0;fontSize=16;" parent="-XFt7LpDI0PxdsaACA3U-114" vertex="1">
          <mxGeometry x="40" width="606" height="428" as="geometry">
            <mxRectangle width="606" height="428" as="alternateBounds" />
          </mxGeometry>
        </mxCell>
        <mxCell id="-XFt7LpDI0PxdsaACA3U-116" value="" style="swimlane;swimlaneHead=0;swimlaneBody=0;fontStyle=0;connectable=0;strokeColor=inherit;fillColor=none;startSize=0;collapsible=0;recursiveResize=0;expand=0;fontSize=16;" parent="-XFt7LpDI0PxdsaACA3U-114" vertex="1">
          <mxGeometry x="646" width="121" height="428" as="geometry">
            <mxRectangle width="121" height="428" as="alternateBounds" />
          </mxGeometry>
        </mxCell>
        <mxCell id="-XFt7LpDI0PxdsaACA3U-117" value="" style="swimlane;swimlaneHead=0;swimlaneBody=0;fontStyle=0;connectable=0;strokeColor=inherit;fillColor=none;startSize=0;collapsible=0;recursiveResize=0;expand=0;fontSize=16;" parent="-XFt7LpDI0PxdsaACA3U-114" vertex="1">
          <mxGeometry x="767" width="363" height="428" as="geometry">
            <mxRectangle width="363" height="428" as="alternateBounds" />
          </mxGeometry>
        </mxCell>
        <mxCell id="-XFt7LpDI0PxdsaACA3U-118" value="Actor 3" style="shape=tableRow;horizontal=0;swimlaneHead=0;swimlaneBody=0;top=0;left=0;strokeColor=inherit;bottom=0;right=0;dropTarget=0;fontStyle=0;fillColor=none;points=[[0,0.5],[1,0.5]];portConstraint=eastwest;startSize=40;collapsible=0;recursiveResize=0;expand=0;fontSize=16;" parent="-XFt7LpDI0PxdsaACA3U-109" vertex="1">
          <mxGeometry y="894" width="1130" height="426" as="geometry" />
        </mxCell>
        <mxCell id="-XFt7LpDI0PxdsaACA3U-119" value="" style="swimlane;swimlaneHead=0;swimlaneBody=0;fontStyle=0;connectable=0;strokeColor=inherit;fillColor=none;startSize=0;collapsible=0;recursiveResize=0;expand=0;fontSize=16;" parent="-XFt7LpDI0PxdsaACA3U-118" vertex="1">
          <mxGeometry x="40" width="606" height="426" as="geometry">
            <mxRectangle width="606" height="426" as="alternateBounds" />
          </mxGeometry>
        </mxCell>
        <mxCell id="-XFt7LpDI0PxdsaACA3U-120" value="" style="swimlane;swimlaneHead=0;swimlaneBody=0;fontStyle=0;connectable=0;strokeColor=inherit;fillColor=none;startSize=0;collapsible=0;recursiveResize=0;expand=0;fontSize=16;" parent="-XFt7LpDI0PxdsaACA3U-118" vertex="1">
          <mxGeometry x="646" width="121" height="426" as="geometry">
            <mxRectangle width="121" height="426" as="alternateBounds" />
          </mxGeometry>
        </mxCell>
        <mxCell id="-XFt7LpDI0PxdsaACA3U-121" value="" style="swimlane;swimlaneHead=0;swimlaneBody=0;fontStyle=0;connectable=0;strokeColor=inherit;fillColor=none;startSize=0;collapsible=0;recursiveResize=0;expand=0;fontSize=16;" parent="-XFt7LpDI0PxdsaACA3U-118" vertex="1">
          <mxGeometry x="767" width="363" height="426" as="geometry">
            <mxRectangle width="363" height="426" as="alternateBounds" />
          </mxGeometry>
        </mxCell>
        <mxCell id="-XFt7LpDI0PxdsaACA3U-122" value="" style="rounded=0;whiteSpace=wrap;html=1;" parent="1" vertex="1">
          <mxGeometry x="1160" y="2040" width="1570" height="1880" as="geometry" />
        </mxCell>
        <mxCell id="-XFt7LpDI0PxdsaACA3U-124" value="&lt;span style=&quot;font-size: 48px;&quot;&gt;Form Validation&lt;/span&gt;" style="text;html=1;align=center;verticalAlign=middle;whiteSpace=wrap;rounded=0;" parent="1" vertex="1">
          <mxGeometry x="1310" y="2080" width="910" height="130" as="geometry" />
        </mxCell>
        <mxCell id="-XFt7LpDI0PxdsaACA3U-125" value="" style="whiteSpace=wrap;html=1;aspect=fixed;" parent="1" vertex="1">
          <mxGeometry x="1280" y="2310" width="1250" height="1250" as="geometry" />
        </mxCell>
        <mxCell id="-XFt7LpDI0PxdsaACA3U-126" value="" style="rounded=0;whiteSpace=wrap;html=1;" parent="1" vertex="1">
          <mxGeometry x="1320" y="2440" width="320" height="50" as="geometry" />
        </mxCell>
        <mxCell id="-XFt7LpDI0PxdsaACA3U-127" value="" style="rounded=0;whiteSpace=wrap;html=1;" parent="1" vertex="1">
          <mxGeometry x="1320" y="2530" width="320" height="50" as="geometry" />
        </mxCell>
        <mxCell id="-XFt7LpDI0PxdsaACA3U-128" value="" style="rounded=0;whiteSpace=wrap;html=1;" parent="1" vertex="1">
          <mxGeometry x="1320" y="2610" width="320" height="50" as="geometry" />
        </mxCell>
        <mxCell id="-XFt7LpDI0PxdsaACA3U-129" value="" style="rounded=0;whiteSpace=wrap;html=1;" parent="1" vertex="1">
          <mxGeometry x="1320" y="2690" width="320" height="50" as="geometry" />
        </mxCell>
        <mxCell id="-XFt7LpDI0PxdsaACA3U-130" value="" style="rounded=0;whiteSpace=wrap;html=1;" parent="1" vertex="1">
          <mxGeometry x="1330" y="2830" width="30" height="30" as="geometry" />
        </mxCell>
        <mxCell id="-XFt7LpDI0PxdsaACA3U-131" value="" style="rounded=0;whiteSpace=wrap;html=1;" parent="1" vertex="1">
          <mxGeometry x="1330" y="2893" width="30" height="30" as="geometry" />
        </mxCell>
        <mxCell id="-XFt7LpDI0PxdsaACA3U-132" value="" style="rounded=0;whiteSpace=wrap;html=1;" parent="1" vertex="1">
          <mxGeometry x="1330" y="2965" width="30" height="30" as="geometry" />
        </mxCell>
        <mxCell id="-XFt7LpDI0PxdsaACA3U-133" value="" style="rounded=0;whiteSpace=wrap;html=1;" parent="1" vertex="1">
          <mxGeometry x="1330" y="3030" width="30" height="30" as="geometry" />
        </mxCell>
        <mxCell id="-XFt7LpDI0PxdsaACA3U-135" value="" style="rounded=0;whiteSpace=wrap;html=1;" parent="1" vertex="1">
          <mxGeometry x="1340" y="3120" width="370" height="160" as="geometry" />
        </mxCell>
        <mxCell id="-XFt7LpDI0PxdsaACA3U-136" value="" style="rounded=0;whiteSpace=wrap;html=1;" parent="1" vertex="1">
          <mxGeometry x="1340" y="3350" width="150" height="50" as="geometry" />
        </mxCell>
      </root>
    </mxGraphModel>
  </diagram>
</mxfile>
